<svg xmlns="http://www.w3.org/2000/svg" baseProfile="full" version="1.1" width="1860px" height="900px" style="fill: none; width: 1860px; height: 900px;"><path d="" style="stroke-width: 15; stroke-linecap: round; stroke-linejoin: round; stroke: rgb(255, 255, 255); fill: none;"/><path d="" style="stroke-width: 15; stroke-linecap: round; stroke-linejoin: round; stroke: rgb(74, 74, 74); fill: none;"/><path d="M120,480 L120,480 L120,240 M120,270 L120,270 L165,315 L210,270 M210,480 L210,480 L210,240 M255,240 L255,240 L255,480 L345,480 M255,240 L255,240 L345,240 L255,315 M390,240 L390,240 L480,240 M435,240 L435,240 L435,480 M525,240 L525,240 L525,480 L615,480 M615,240 L615,240 L525,315 M525,240 L525,240 L615,240 M705,240 A45,45 0 0,0 660,285 A45,45 0 0,0 705,330 A45,45 0 0,0 750,285 A45,45 0 0,0 705,240 M705,360 L705,360 L705,420 M660,345 L660,345 L645,360 M750,345 L750,345 L765,360 M795,480 L795,480 L795,240 A90,75 0 0,1 885,315 L795,315 L795,240 M840,315 L840,315 L885,480 M930,240 L930,240 L930,480 M930,240 L930,240 L1020,480 M930,315 L930,315 L1020,315 M45,270 A375,90 0 0,1 420,180 A285,30 0 0,1 705,210 " style="stroke-width: 15; stroke-linecap: round; stroke-linejoin: round; stroke: rgb(255, 255, 255    ); fill: none;"/></svg>